# AST/ASF file generated using VICON BodyLanguage
# -----------------------------------------------
:version 1.10
:name VICON
:units
  mass 1.0
  length 0.45
  angle deg
:documentation
   .ast/.asf automatically generated from VICON data using
   VICON BodyBuilder and BodyLanguage model FoxedUp or BRILLIANT.MOD
:root
   order TX TY TZ RX RY RZ
   axis XYZ
   position 0 0 0  
   orientation 0 0 0 
:bonedata
  begin
     id 1 
     name lhipjoint
     direction 0.567725 -0.736092 0.368589 
     length 2.42353 
     axis 0 0 0  XYZ
  end
  begin
     id 2 
     name lfemur
     direction 0.34202 -0.939693 0  
     length 7.24894  
     axis 0 0 20  XYZ
    dof rx ry rz
    limits (-160.0 20.0)
           (-70.0 70.0)
           (-60.0 70.0)
  end
  begin
     id 3 
     name ltibia
     direction 0.34202 -0.939693 0   
     length 7.6997   
     axis 0 0 20   XYZ
    dof rx
    limits (-10.0 170.0)
  end
  begin
     id 4 
     name lfoot
     direction 0.100767 -0.276854 0.955614   
     length 2.37556   
     axis -90 7.62852e-016 20   XYZ
    dof rx rz
    limits (-45.0 90.0)
           (-70.0 20.0)
  end
  begin
     id 5 
     name ltoes
     direction 1.53592e-011 -4.21894e-011 1   
     length 1.18363   
     axis -90 7.62852e-016 20   XYZ
    dof rx
    limits (-90.0 20.0)
  end
  begin
     id 6 
     name rhipjoint
     direction -0.556459 -0.742938 0.372017   
     length 2.4012  
     axis 0 0 0  XYZ 
  end
  begin
     id 7 
     name rfemur
     direction -0.34202 -0.939693 0   
     length 7.5119   
     axis 0 0 -20   XYZ
    dof rx ry rz
    limits (-160.0 20.0)
           (-70.0 70.0)
           (-70.0 60.0)
  end
  begin
     id 8 
     name rtibia
     direction -0.34202 -0.939693 0   
     length 7.50155   
     axis 0 0 -20   XYZ
    dof rx
    limits (-10.0 170.0)
 end
 begin
     id 9 
     name rfoot
     direction -0.118427 -0.325376 0.938139   
     length 2.32487  
     axis -90 -7.62852e-016 -20   XYZ
    dof rx rz
    limits (-45.0 90.0)
           (-20.0 70.0)
  end
  begin
     id 10 
     name rtoes
     direction -1.53525e-011 -4.21868e-011 1   
     length 1.15233   
     axis -90 -7.62852e-016 -20   XYZ
    dof rx
    limits (-90.0 20.0)
  end
  begin
     id 11 
     name lowerback
     direction 0.0287568 0.999577 -0.00434502   
     length 2.15243   
     axis 0 0 0   XYZ
    dof rx ry rz
    limits (-20.0 45.0)
           (-30.0 30.0)
           (-30.0 30.0)
  end
  begin
     id 12 
     name upperback
     direction 0.0294009 0.99956 0.00404628   
     length 2.15427   
     axis 0 0 0   XYZ
    dof rx ry rz
    limits (-20.0 45.0)
           (-30.0 30.0)
           (-30.0 30.0)
  end
  begin
     id 13 
     name thorax
     direction 0.0151014 0.999868 0.0059419   
     length 2.14898   
     axis 0 0 0   XYZ
    dof rx ry rz
    limits (-20.0 45.0)
           (-30.0 30.0)
           (-30.0 30.0)
  end
  begin
     id 14 
     name lowerneck
     direction -0.0249197 0.989906 0.139515   
     length 1.6861   
     axis 0 0 0   XYZ
    dof rx ry rz
    limits (-20.0 45.0)
           (-30.0 30.0)
           (-30.0 30.0)
  end
  begin
     id 15 
     name upperneck
     direction 0.0438463 0.988795 -0.142693   
     length 1.71276   
     axis 0 0 0   XYZ
    dof rx ry rz
    limits (-20.0 45.0)
           (-30.0 30.0)
           (-30.0 30.0)
  end
  begin
     id 16
     name head
     direction 0.0148499 0.997845 -0.0639186  
     length 1.7209  
     axis 0 0 0   XYZ
    dof rx ry rz
    limits (-20.0 45.0)
           (-30.0 30.0)
           (-30.0 30.0)
  end
  begin
     id 17 
     name lclavicle
     direction 0.940298 0.323464 -0.105876  
     length 3.9048  
     axis 0 0 0   XYZ
    dof ry rz
    limits (-20.0 10.0)
           (0.0 20.0)
  end
  begin
     id 18 
     name lhumerus
     direction 1 -4.48954e-011 -4.9675e-028   
     length 4.6851   
     axis 180 -30 -90   XYZ
    dof rx ry rz
    limits (-60.0 90.0)
           (-90.0 90.0)
           (-90.0 90.0)
  end
  begin
     id 19
     name lradius
     direction 1 -4.48992e-011 -1.03359e-026   
     length 3.39626   
     axis 180 -30 -90   XYZ
    dof rx
    limits (-10.0 170.0)
  end
  begin
     id 20
     name lwrist
     direction 1 -4.48906e-011 -1.67336e-026   
     length 1.69813   
     axis 9.90442e-015 90 90   XYZ
    dof ry
    limits (-180.0 0.0)
 end
  begin
     id 21 
     name lhand
     direction 1 -4.49006e-011 -3.34673e-026   
     length 0.486078   
     axis 2.1355e-014 90 90   XYZ
    dof rx rz
    limits (-90.0 90.0)
           (-45.0 45.0)
  end
  begin
     id 22 
     name lfingers
     direction 1 -4.48992e-011 -6.69345e-026   
     length 0.391889   
     axis 4.27099e-014 90 90   XYZ
    dof rx
    limits (0.0 90.0)
  end
  begin
     id 23
     name lthumb
     direction 0.707107 -6.34926e-011 0.707107   
     length 0.562676   
     axis -90 45 2.85299e-015   XYZ
    dof rx rz
    limits (-45.0 45.0)
           (-45.0 45.0)
  end
  begin
     id 24 
     name rclavicle
     direction -0.882459 0.414895 -0.221648   
     length 3.44646  
     axis 0 0 0   XYZ 
    dof ry rz
    limits (-10.0 20.0)
           (-20.0 0.0)
  end
  begin
     id 25 
     name rhumerus
     direction -1 -4.48962e-011 -2.37984e-027  
     length 5.55576   
     axis 180 30 90   XYZ
    dof rx ry rz
    limits (-90.0 60.0)
           (-90.0 90.0)
           (-90.0 90.0)
  end
  begin
     id 26 
     name rradius
     direction -1 -4.48982e-011 -6.86791e-027   
     length 3.32774   
     axis 180 30 90   XYZ
    dof rx
    limits (-10.0 170.0)
  end
  begin
     id 27 
     name rwrist
     direction -1 -4.48961e-011 -1.67336e-026   
     length 1.66387   
     axis 9.90442e-015 -90 -90   XYZ
    dof ry
    limits (-180.0 0.0)
  end
  begin
     id 28
     name rhand
     direction -1 -4.4897e-011 -3.34673e-026   
     length 0.507628   
     axis 2.1355e-014 -90 -90   XYZ
    dof rx rz
    limits (-90.0 90.0)
           (-45.0 45.0)
  end
  begin
     id 29
     name rfingers
     direction -1 -4.48854e-011 -6.69345e-026   
     length 0.409263   
     axis 4.27099e-014 -90 -90   XYZ
    dof rx
    limits (0.0 90.0)
  end
  begin
     id 30
     name rthumb
     direction -0.707107 -6.34913e-011 0.707107   
     length 0.587622   
     axis -90 -45 -2.85299e-015   XYZ
    dof rx rz
    limits (-45.0 45.0)
           (-45.0 45.0)
  end
:hierarchy
  begin
    root lhipjoint rhipjoint lowerback
    lhipjoint lfemur
    lfemur ltibia
    ltibia lfoot
    lfoot ltoes
    rhipjoint rfemur
    rfemur rtibia
    rtibia rfoot
    rfoot rtoes
    lowerback upperback
    upperback thorax
    thorax lowerneck lclavicle rclavicle
    lowerneck upperneck
    upperneck head
    lclavicle lhumerus
    lhumerus lradius
    lradius lwrist
    lwrist lhand lthumb
    lhand lfingers
    rclavicle rhumerus
    rhumerus rradius
    rradius rwrist
    rwrist rhand rthumb
    rhand rfingers
  end

#!OML:ASF E:\motion texture\Top Level 1\Subject 1\Session 1\male.ASF
:FULLY-SPECIFIED
:DEGREES
1
root 41.2424 17.8247 5.13804 131.015 -83.7493 -121.678
lowerback -4.3519 -1.24884 5.00438
upperback -1.45246 -2.04239 4.06083
thorax 0.922242 -1.06874 1.2712
lowerneck -9.96023 -10.8628 -14.4497
upperneck 12.751 -13.8308 8.33701
head 7.12473 -6.79949 3.56259
rclavicle 1.14798e-014 -7.15625e-015
rhumerus -21.9858 -13.7267 -78.6973
rradius 24.73
rwrist -19.5028
rhand 0.288688 -42.0983
rfingers 7.12502
rthumb 25.8669 -70.3591
lclavicle 1.14798e-014 -7.15625e-015
lhumerus -36.5109 26.6586 73.1655
lradius 32.7632
lwrist 9.91622
lhand -3.70226 26.4679
lfingers 7.12502
lthumb 22.0399 55.2321
rfemur -11.4829 1.5537 27.8726
rtibia 17.2082
rfoot -9.21492 -12.2089
rtoes 10.6858
lfemur -11.085 -1.50418 -13.8294
ltibia 16.815
lfoot -10.5577 5.32512
ltoes 0.126306
2
root 41.2386 17.8259 5.1343 131.021 -83.7122 -121.706
lowerback -4.4399 -1.23561 4.99507
upperback -1.46144 -2.03206 4.07382
thorax 0.963189 -1.06341 1.28807
lowerneck -10.1087 -10.6915 -14.6636
upperneck 12.9292 -13.6558 8.92622
head 7.24643 -6.68147 3.79901
rclavicle 2.41523e-014 -4.13472e-014
rhumerus -22.0738 -13.711 -78.6685
rradius 24.727
rwrist -19.4081
rhand 0.188481 -42.232
rfingers 7.12502
rthumb 25.7709 -70.5067
lclavicle 2.41523e-014 -4.13472e-014
lhumerus -36.5122 26.7933 73.1166
lradius 32.6492
lwrist 9.87777
lhand -3.71755 26.5338
lfingers 7.12502
lthumb 22.0252 55.2996
rfemur -11.3761 1.58083 27.913
rtibia 17.0907
rfoot -9.18387 -12.158
rtoes 10.7939
lfemur -11.0314 -1.4433 -13.7833
ltibia 16.7897
lfoot -10.5297 5.36688
ltoes 0.234023
3
root 41.2349 17.8278 5.13237 131.152 -83.7546 -121.853
lowerback -4.06006 -1.28119 4.83563
upperback -1.8646 -2.0395 4.16583
thorax 0.344078 -1.08304 1.48873
lowerneck -9.64422 -10.5729 -14.8508
upperneck 13.0576 -13.5345 8.82194
head 7.19951 -6.65808 3.83024
rclavicle -1.39149e-014 1.51076e-014
rhumerus -22.7734 -13.2909 -78.4106
rradius 24.7936
rwrist -19.401
rhand 0.0814961 -42.5605
rfingers 7.12502
rthumb 25.6684 -70.85
lclavicle -1.39149e-014 1.51076e-014
lhumerus -37.3071 26.8728 72.8652
lradius 32.6658
lwrist 9.81835
lhand -3.82887 26.6456
lfingers 7.12502
lthumb 21.9183 55.424
rfemur -11.2815 1.53522 27.8592
rtibia 16.9749
rfoot -9.18335 -12.1136
rtoes 10.8103
lfemur -10.976 -1.45592 -13.8445
ltibia 16.7355
lfoot -10.5304 5.40703
ltoes 0.302868
4
root 41.2322 17.8291 5.12863 131.113 -83.7437 -121.824
lowerback -3.92124 -1.31745 4.7845
upperback -2.06186 -2.06794 4.21996
thorax 0.0667626 -1.10451 1.57971
lowerneck -9.33425 -10.6546 -14.7222
upperneck 13.0395 -13.5958 8.1174
head 7.08758 -6.74108 3.59033
rclavicle -1.44616e-014 1.90833e-014
rhumerus -23.0946 -13.0368 -78.3187
rradius 24.7945
rwrist -19.2801
rhand -0.0258008 -42.7709
rfingers 7.12502
rthumb 25.5657 -71.0753
lclavicle -1.44616e-014 1.90833e-014
lhumerus -37.713 27.0025 72.6895
lradius 32.654
lwrist 9.844
lhand -3.87753 26.7682
lfingers 7.12502
lthumb 21.8716 55.5521
rfemur -11.1984 1.56499 27.8775
rtibia 16.8633
rfoot -9.17702 -12.0945
rtoes 10.9193
lfemur -10.9362 -1.43213 -13.8181
ltibia 16.6862
lfoot -10.4595 5.44802
ltoes 0.317844
5
root 41.2283 17.83 5.12666 131.13 -83.7471 -121.847
lowerback -3.9106 -1.27296 4.83525
upperback -2.05866 -2.00737 4.15893
thorax 0.06052 -1.07405 1.49102
lowerneck -10.0643 -10.519 -14.6727
upperneck 13.7304 -13.4075 8.38749
head 7.43122 -6.61459 3.65239
rclavicle 2.38542e-015 2.70347e-014
rhumerus -23.0964 -13.2211 -78.3175
rradius 24.777
rwrist -19.0714
rhand -0.128526 -43.1547
rfingers 7.12502
rthumb 25.4673 -71.4731
lclavicle 2.38542e-015 2.70347e-014
lhumerus -37.5698 26.963 72.7136
lradius 32.5753
lwrist 9.97108
lhand -3.9143 26.799
lfingers 7.12502
lthumb 21.8363 55.587
rfemur -11.1384 1.59164 27.8806
rtibia 16.7969
rfoot -9.17336 -12.0913
rtoes 10.9551
lfemur -10.8645 -1.46733 -13.8294
ltibia 16.5912
lfoot -10.4373 5.5155
ltoes 0.388705
6
root 41.2261 17.8308 5.12388 130.92 -83.7483 -121.626
lowerback -3.94877 -1.31993 4.84864
upperback -2.1789 -2.06934 4.17711
thorax -0.0424431 -1.10898 1.50143
lowerneck -9.63773 -10.4229 -14.9015
upperneck 13.5561 -13.3249 8.56658
head 7.3201 -6.5862 3.77814
rclavicle -5.31749e-015 1.27222e-014
rhumerus -23.3311 -12.9455 -78.3123
rradius 24.8122
rwrist -18.915
rhand -0.230652 -43.411
rfingers 7.12502
rthumb 25.3694 -71.7433
lclavicle -5.31749e-015 1.27222e-014
lhumerus -37.8493 27.1669 72.506
lradius 32.5313
lwrist 10.0853
lhand -3.8758 26.8038
lfingers 7.12502
lthumb 21.8732 55.5875
rfemur -11.0835 1.57064 27.895
rtibia 16.6973
rfoot -9.16202 -12.0386
rtoes 11.2028
lfemur -10.8367 -1.51181 -13.8111
ltibia 16.533
lfoot -10.4288 5.57038
ltoes 0.0630616
7
root 41.2229 17.8311 5.12095 131.042 -83.7402 -121.759
lowerback -4.11316 -1.29087 4.91047
upperback -2.08294 -2.04812 4.10807
thorax 0.143785 -1.09408 1.38998
lowerneck -9.9308 -10.4736 -14.7662
upperneck 13.6464 -13.3675 8.51947
head 7.39215 -6.59419 3.72207
rclavicle 2.43511e-014 -1.43125e-014
rhumerus -23.175 -13.0322 -78.4272
rradius 24.7909
rwrist -18.6208
rhand -0.544062 -43.919
rfingers 7.12502
rthumb 25.0692 -72.2936
lclavicle 2.43511e-014 -1.43125e-014
lhumerus -37.5935 27.2883 72.4904
lradius 32.4252
lwrist 10.2024
lhand -3.77193 26.7551
lfingers 7.12502
lthumb 21.973 55.5271
rfemur -11.0091 1.56857 27.9001
rtibia 16.5998
rfoot -9.1394 -12.0062
rtoes 11.2119
lfemur -10.7438 -1.53987 -13.8112
ltibia 16.4077
lfoot -10.3784 5.6476
ltoes 0.405211
8
root 41.2207 17.8314 5.11806 130.948 -83.7397 -121.66
lowerback -4.59992 -1.24726 5.05279
upperback -1.80969 -2.04335 3.9743
thorax 0.687584 -1.07853 1.15449
lowerneck -10.7944 -10.5401 -14.4138
upperneck 13.6394 -13.3805 8.55089
head 7.51732 -6.55055 3.63813
rclavicle -3.74212e-014 7.71285e-014
rhumerus -22.7896 -13.2965 -78.6601
rradius 24.7408
rwrist -18.2898
rhand -0.845552 -44.3725
rfingers 7.12502
rthumb 24.7802 -72.7871
lclavicle -3.74212e-014 7.71285e-014
lhumerus -37.0287 27.36 72.5546
lradius 32.309
lwrist 10.3112
lhand -3.68966 26.7727
lfingers 7.12502
lthumb 22.0519 55.5354
rfemur -10.9717 1.58213 27.9148
rtibia 16.547
rfoot -9.15141 -11.9689
rtoes 11.2026
lfemur -10.6831 -1.62867 -13.7956
ltibia 16.3161
lfoot -10.4059 5.70033
ltoes 0.560195
9
root 41.2186 17.8311 5.11519 130.916 -83.7277 -121.614
lowerback -4.70395 -1.21927 5.09625
upperback -1.74826 -2.01795 3.93528
thorax 0.806528 -1.06266 1.0875
lowerneck -10.5324 -10.5395 -14.5144
upperneck 13.441 -13.4237 8.76144
head 7.43496 -6.56736 3.73011
rclavicle -9.59136e-015 -4.13472e-014
rhumerus -22.6737 -13.3242 -78.7387
rradius 24.7541
rwrist -18.0961
rhand -1.08424 -44.4851
rfingers 7.12502
rthumb 24.5515 -72.931
lclavicle -9.59136e-015 -4.13472e-014
lhumerus -36.818 27.5299 72.5497
lradius 32.2233
lwrist 10.3835
lhand -3.53566 26.6916
lfingers 7.12502
lthumb 22.1998 55.4368
rfemur -10.9467 1.59983 27.9353
rtibia 16.4829
rfoot -9.1518 -11.9385
rtoes 11.4149
lfemur -10.6232 -1.70475 -13.7695
ltibia 16.1958
lfoot -10.3968 5.7718
ltoes 0.588644
